<svg xmlns="http://www.w3.org/2000/svg" xmlns:android="http://schemas.android.com/apk/res/android" xmlns:aapt="http://schemas.android.com/aapt" viewportWidth="962" viewportHeight="291" width="962dp" height="291dp">
	<path d="M148.5 9L175.5 9L197.5 13L222.5 23L233.5 30L239 35.5L246 49.5L246 51.5L246 61.5L244 68.5L249 73.5L251 79Q253.7 77.9 253 80.5L257 88Q260 86.8 259 90.5Q273.9 113.1 274 150.5L273 151.5L273 161.5L271 172.5L265 191.5Q255 214 238.5 230L231 236.5L232.5 240Q238.1 240.5 240 244.5L248 265.5L256.5 276L271 286.5L264.5 287L251.5 284L237.5 278L221.5 267L215 260.5L212.5 257L182.5 266Q177 264.5 175.5 267L147.5 267L131.5 264L103.5 254Q79.9 242.6 64 223.5L50 204.5L38 177.5L34 158.5L33 128.5L34 127.5L34 117.5L38 98.5L45 81.5L49 75.5L50 70.5Q45.3 57.3 34.5 50L27 46Q28.3 43 24.5 44L20.5 41L8.5 38L7 36.5L24.5 30Q33.1 30.1 38.5 27L53.5 26L58.5 24Q64.8 25.8 66.5 23L102.5 23L126.5 13L148.5 9ZM106 22L103 24L106 24L106 22ZM101 24L100 26L103 25L101 24ZM164 43L152 46L149 50L150 54L159 60L181 66L198 66L206 62Q208 63 207 57L200 50L190 46Q183 47 180 44L173 44L172 43L164 43ZM242 70L239 76L226 85L217 88L205 89L204 90L188 90L168 86Q154 84 147 88L141 94L137 106L140 125L147 139L164 153L174 158L193 163Q197 161 196 165L184 172L169 176L146 176L141 175L129 171L127 169L124 169L116 164L100 149L89 134L85 135L81 139L78 147L78 163L84 185Q92 204 106 219L119 229L137 239L150 243L162 244L163 245L188 245L189 244L201 243L194 225L192 216L192 208L191 207L192 186L195 178Q194 189 197 196L206 209L218 216Q224 221 227 230L229 239L230 237L239 229Q254 213 264 192L270 173L272 162L272 152L273 151L272 132L266 107L258 90L248 76L247 72L242 70ZM87 231L84 241L93 247L108 255L132 263L148 266L176 266L199 261L199 260L194 261L164 261L137 256Q107 248 87 231Z" fill="#0F0F10" stroke="#0F0F10" stroke-width="1"/>
	<path d="M0 0L961.5 0L962 0.5L962 291L0.5 291L0 290.5L0 0ZM149 9L141 11L135 11L116 17L116 19L115 18L108 20L108 22L107 21L105 22L106 24L99 27L97 27L103 24L103 23L67 23Q65 26 59 24L54 26L39 27Q33 30 25 30L7 37L9 38L21 41L25 44Q28 43 27 46L35 50Q45 57 50 71L49 76L45 82L38 99L34 118L34 128L33 129L34 159L38 178L50 205L64 224L80 238Q81 241 83 239L82 241L84 241L87 231Q104 245 127 253L150 259L163 260L164 261L194 261L195 260L200 261L213 257L215 261L222 267L238 278L252 284L265 287L271 287L257 276L248 266L240 245Q238 240 233 240L231 237L239 230Q255 214 265 192L271 173L273 162L273 152L274 151Q274 113 259 91Q260 87 257 88L253 81Q254 78 251 79L249 74Q248 71 247 73Q248 71 244 69L246 62L246 52L246 50L239 36L234 30L223 23L198 13L176 9L149 9ZM325 100L309 107Q298 114 296 129L296 204L374 204L391 196Q399 190 401 178L401 100L325 100ZM466 100L466 134Q469 135 468 131L478 123L489 121L537 121L540 122L544 128L544 145L543 148L538 152L508 153L541 204L571 204L552 174L562 170Q569 165 571 155L571 121L566 110Q561 102 552 100L466 100ZM657 101L647 105Q638 110 636 122L636 185L641 196Q646 202 655 204L743 204L743 204L743 183L674 183L667 179L667 128L668 126L672 123L712 123L712 153L718 153L743 129L743 102L743 101L657 101ZM864 101L808 203L809 204L842 204L883 128L894 150L896 151L929 151L904 104L904 101L864 101ZM491 133Q480 135 474 140Q468 145 466 155L466 221L477 221L493 205L493 134L491 133ZM880 162L868 182L869 184L913 184L924 204L958 204L936 164L936 162L880 162ZM771 177L766 178L761 184L761 199L762 201L766 204L787 204L792 198L791 183L787 178L771 177ZM426 178L424 179L420 184L420 199L421 201L426 204L442 204L447 200L447 184L446 182L442 178L426 178ZM596 178L594 179L590 184L590 199L591 201L596 204L612 204L617 200L617 184L616 182L612 178L596 178ZM108 255L108 256L110 256L108 255ZM111 256L111 257L113 257L111 256ZM116 258L116 259L118 259L116 258ZM119 259L119 260L122 260L119 259ZM123 260L123 261L125 261L123 260ZM126 261L126 262L128 262L126 261ZM197 261L197 262L199 262L197 261ZM129 262L129 263L131 263L129 262ZM193 262L193 263L196 263L193 262ZM132 263L132 264L136 264L132 263ZM189 263L189 264L192 264L189 263ZM137 264L137 265L140 265L137 264ZM184 264L184 265L188 265L184 264ZM141 265L141 266L147 266L141 265ZM177 265L177 266L183 266L177 265ZM148 266L148 267L176 267L148 266Z" fill="#2c313c" stroke="#2c313c" stroke-width="1"/>
	<path d="M163.5 43L172 43.5L161.5 45L160 46.5L158 56.5Q161.9 61.6 170 62.5L166.5 63L156.5 59L150 53.5L149 49.5L151.5 46L163.5 43Z" fill="#2c313c" stroke="#2c313c" stroke-width="1"/>
	<path d="M175.5 44L180 44.5L175.5 45L175.5 44Z" fill="#2c313c" stroke="#2c313c" stroke-width="1"/>
	<path d="M186.5 46L195 48.5L193.5 49L186.5 47L186.5 46Z" fill="#2c313c" stroke="#2c313c" stroke-width="1"/>
	<path d="M196.5 49L202 52.5L199.5 51Q195.8 50.8 196.5 49Z" fill="#2c313c" stroke="#2c313c" stroke-width="1"/>
	<path d="M203.5 53L207 57.5L206 57.5L203.5 53Z" fill="#2c313c" stroke="#2c313c" stroke-width="1"/>
	<path d="M206.5 60L207 62L202.5 64L202.5 63L206.5 60Z" fill="#2c313c" stroke="#2c313c" stroke-width="1"/>
	<path d="M176.5 64L179 64.5L176.5 65L176.5 64Z" fill="#2c313c" stroke="#2c313c" stroke-width="1"/>
	<path d="M180.5 65L198 65.5L180.5 66L180.5 65Z" fill="#2c313c" stroke="#2c313c" stroke-width="1"/>
	<path d="M241.5 72L239.5 75L241.5 72Z" fill="#2c313c" stroke="#2c313c" stroke-width="1"/>
	<path d="M231.5 81L230.5 83L228.5 84L229.5 82L231.5 81Z" fill="#2c313c" stroke="#2c313c" stroke-width="1"/>
	<path d="M152.5 86L156 86.5L149.5 88L142 93Q141.3 97.7 145.5 99L149 101.5L141 113.5L139.5 121L137 105.5L141 93.5L146.5 88L152.5 86Z" fill="#2c313c" stroke="#2c313c" stroke-width="1"/>
	<path d="M163.5 86L168 86.5L163.5 87L163.5 86Z" fill="#2c313c" stroke="#2c313c" stroke-width="1"/>
	<path d="M169.5 87L179 88.5L173.5 89L169.5 88L169.5 87Z" fill="#2c313c" stroke="#2c313c" stroke-width="1"/>
	<path d="M182.5 89L187 89.5L182.5 90L182.5 89Z" fill="#2c313c" stroke="#2c313c" stroke-width="1"/>
	<path d="M204.5 89L207 89.5L204.5 90L204.5 89Z" fill="#2c313c" stroke="#2c313c" stroke-width="1"/>
	<path d="M194.5 90L198 90.5L194.5 91L194.5 90Z" fill="#2c313c" stroke="#2c313c" stroke-width="1"/>
	<path d="M337.5 121L374 121L374 167.5L371 176.5L367.5 180L360.5 183L323 183L323 137.5L325 129.5L331.5 123L337.5 121Z" fill="#2c313c" stroke="#2c313c" stroke-width="1"/>
	<path d="M86.5 134L90 135.5L88.5 135Q85.5 135.5 86.5 134Z" fill="#2c313c" stroke="#2c313c" stroke-width="1"/>
	<path d="M145.5 135L152 142.5L147 138.5L145.5 135Z" fill="#2c313c" stroke="#2c313c" stroke-width="1"/>
	<path d="M82.5 137L81.5 139L82.5 137Z" fill="#2c313c" stroke="#2c313c" stroke-width="1"/>
	<path d="M91.5 137L93.5 140L91.5 137Z" fill="#2c313c" stroke="#2c313c" stroke-width="1"/>
	<path d="M94.5 141L96.5 144L94.5 141Z" fill="#2c313c" stroke="#2c313c" stroke-width="1"/>
	<path d="M153.5 144L157.5 149L153.5 144Z" fill="#2c313c" stroke="#2c313c" stroke-width="1"/>
	<path d="M97.5 145L99.5 148L97.5 145Z" fill="#2c313c" stroke="#2c313c" stroke-width="1"/>
	<path d="M78.5 146L79 162.5L78 162.5L78.5 146Z" fill="#2c313c" stroke="#2c313c" stroke-width="1"/>
	<path d="M100.5 149L108.5 158L100.5 149Z" fill="#2c313c" stroke="#2c313c" stroke-width="1"/>
	<path d="M159.5 149L160.5 151L159.5 149Z" fill="#2c313c" stroke="#2c313c" stroke-width="1"/>
	<path d="M162.5 151L163.5 153L162.5 151Z" fill="#2c313c" stroke="#2c313c" stroke-width="1"/>
	<path d="M186.5 161L189 161.5L186.5 162L186.5 161Z" fill="#2c313c" stroke="#2c313c" stroke-width="1"/>
	<path d="M192.5 162L195 162.5L192.5 163L192.5 162Z" fill="#2c313c" stroke="#2c313c" stroke-width="1"/>
	<path d="M196.5 163L197 164.5L194 166.5L196.5 163Z" fill="#2c313c" stroke="#2c313c" stroke-width="1"/>
	<path d="M79.5 164L80 166.5L79 166.5L79.5 164Z" fill="#2c313c" stroke="#2c313c" stroke-width="1"/>
	<path d="M80.5 169L81 171.5L80 171.5L80.5 169Z" fill="#2c313c" stroke="#2c313c" stroke-width="1"/>
	<path d="M110.5 169Q112 181.5 117 190.5L113.5 188L105 180.5L101 175.5L101 173L110.5 169Z" fill="#2c313c" stroke="#2c313c" stroke-width="1"/>
	<path d="M81.5 173L82 175.5L81 175.5L81.5 173Z" fill="#2c313c" stroke="#2c313c" stroke-width="1"/>
	<path d="M195.5 173L196 188.5L195 188.5L195 178.5L194 177.5L195.5 173Z" fill="#2c313c" stroke="#2c313c" stroke-width="1"/>
	<path d="M169.5 175L172 175.5L169.5 176L169.5 175Z" fill="#2c313c" stroke="#2c313c" stroke-width="1"/>
	<path d="M150.5 176L165 176.5L150.5 177L150.5 176Z" fill="#2c313c" stroke="#2c313c" stroke-width="1"/>
	<path d="M84.5 183L86 186.5L85 186.5L84.5 183Z" fill="#2c313c" stroke="#2c313c" stroke-width="1"/>
	<path d="M86.5 188L90 194.5L88 193.5L86.5 188Z" fill="#2c313c" stroke="#2c313c" stroke-width="1"/>
	<path d="M196.5 190L201 200.5L199 199.5L196 192.5L196.5 190Z" fill="#2c313c" stroke="#2c313c" stroke-width="1"/>
	<path d="M91.5 198Q100.2 213.3 113.5 224L126 232.5L124.5 232L118.5 229L106 218.5Q96.4 209.4 91.5 198Z" fill="#2c313c" stroke="#2c313c" stroke-width="1"/>
	<path d="M201.5 202L210.5 212L206 209L201.5 202Z" fill="#2c313c" stroke="#2c313c" stroke-width="1"/>
	<path d="M212.5 212L213.5 214L212.5 212Z" fill="#2c313c" stroke="#2c313c" stroke-width="1"/>
	<path d="M215.5 214L223 220.5L217.5 216L215.5 214Z" fill="#2c313c" stroke="#2c313c" stroke-width="1"/>
	<path d="M223.5 222Q229.3 227.2 229 238.5L228 238.5L227 229.5L223.5 222Z" fill="#2c313c" stroke="#2c313c" stroke-width="1"/>
	<path d="M127.5 233L132 235.5L130.5 236L127.5 233Z" fill="#2c313c" stroke="#2c313c" stroke-width="1"/>
	<path d="M133.5 236L154 242.5L149.5 243L136.5 239L133.5 236Z" fill="#2c313c" stroke="#2c313c" stroke-width="1"/>
	<path d="M155.5 243L159 243.5L155.5 244L155.5 243Z" fill="#2c313c" stroke="#2c313c" stroke-width="1"/>
	<path d="M184.5 243L188 244.5L162.5 245L162.5 244L183.5 244L184.5 243Z" fill="#2c313c" stroke="#2c313c" stroke-width="1"/>
	<path d="M166.5 44L182 45.5L175 46L172 62L175 63.5L173.5 64L166.5 62L158 56.5L159 49.5L161.5 45L166.5 44Z" fill="#559EE7" stroke="#559EE7" stroke-width="1"/>
	<path d="M183.5 46L186 46.5L183.5 47L183.5 46Z" fill="#559EE7" stroke="#559EE7" stroke-width="1"/>
	<path d="M187.5 47L190 47.5L187.5 48L187.5 47Z" fill="#559EE7" stroke="#559EE7" stroke-width="1"/>
	<path d="M202.5 53L203.5 55L202.5 53Z" fill="#559EE7" stroke="#559EE7" stroke-width="1"/>
	<path d="M239.5 75L235.5 80L232.5 82L234.5 79L239.5 75Z" fill="#559EE7" stroke="#559EE7" stroke-width="1"/>
	<path d="M156.5 86L169 87.5L164 88.5L166 92L163.5 92L153 100Q151.8 107.8 156.5 111L157.5 110L178.5 109L178.5 110L161.5 111L146.5 115L140 118Q142 108 149 101.5L142 95.5Q140.9 92.2 143.5 93L147.5 89L156.5 86Z" fill="#559EE7" stroke="#559EE7" stroke-width="1"/>
	<path d="M213.5 88L217 88.5L213.5 89L213.5 88Z" fill="#559EE7" stroke="#559EE7" stroke-width="1"/>
	<path d="M207.5 89L211 89.5L207.5 90L207.5 89Z" fill="#559EE7" stroke="#559EE7" stroke-width="1"/>
	<path d="M187.5 90L194 90.5L187.5 91L187.5 90Z" fill="#559EE7" stroke="#559EE7" stroke-width="1"/>
	<path d="M198.5 90L204 90.5L198.5 91L198.5 90Z" fill="#559EE7" stroke="#559EE7" stroke-width="1"/>
	<path d="M232.5 93L231.5 95L232.5 93Z" fill="#559EE7" stroke="#559EE7" stroke-width="1"/>
	<path d="M466 100L551.5 100Q561.4 102.1 566 109.5L571 120.5L571 154.5Q568.9 164.9 561.5 170L552 173.5L571 203.5L540.5 204L508 152.5L537.5 152L543 147.5L544 144.5L544 127.5L539.5 122L536.5 121L488.5 121L477.5 123L468 130.5Q469.3 135.3 466 134L466 100Z" fill="#559EE7" stroke="#559EE7" stroke-width="1"/>
	<path d="M656.5 101L742.5 101L743 101.5L743 128.5L717.5 153L712 153L712 123L671.5 123L668 125.5L667 127.5L667 178.5L673.5 183L743 183L743 203.5L742.5 204L654.5 204Q645.6 201.9 641 195.5L636 184.5L636 121.5Q638.4 110.4 646.5 105L656.5 101Z" fill="#559EE7" stroke="#559EE7" stroke-width="1"/>
	<path d="M863.5 101L903.5 101L904 103.5L929 151L895.5 151L894 149.5L882.5 128L841.5 204L808.5 204L808 202.5L863.5 101Z" fill="#559EE7" stroke="#559EE7" stroke-width="1"/>
	<path d="M206.5 105L209 105.5L206.5 106L206.5 105Z" fill="#559EE7" stroke="#559EE7" stroke-width="1"/>
	<path d="M202.5 106L205 106.5L202.5 107L202.5 106Z" fill="#559EE7" stroke="#559EE7" stroke-width="1"/>
	<path d="M188.5 108L191 108.5L188.5 109L188.5 108Z" fill="#559EE7" stroke="#559EE7" stroke-width="1"/>
	<path d="M92.5 139L93.5 141L92.5 139Z" fill="#559EE7" stroke="#559EE7" stroke-width="1"/>
	<path d="M94.5 142L100 148.5L96 145.5L94.5 142Z" fill="#559EE7" stroke="#559EE7" stroke-width="1"/>
	<path d="M100.5 150L109 158.5L110 170L101 173L101 175.5L112.5 188L118 191L124 203.5L138.5 220Q156.3 236.7 184 243.5L159.5 244Q120 237 100 210.5L91 197.5L95 200.5L100.5 209L111.5 206L113.5 204L117 204Q115.9 201.3 118.5 202L120 198.5L115.5 191L102 178.5Q95.8 171.7 93 161.5Q97.2 157.5 104 157L104 154.5L100.5 150Z" fill="#559EE7" stroke="#559EE7" stroke-width="1"/>
	<path d="M79.5 161L80 163.5L79 163.5L79.5 161Z" fill="#559EE7" stroke="#559EE7" stroke-width="1"/>
	<path d="M197 166Q202.2 164.2 200 171.5L199 171.5L198.5 168L196.5 178L196 170.5L197 166Z" fill="#559EE7" stroke="#559EE7" stroke-width="1"/>
	<path d="M200.5 174L201 176.5L200 176.5L200.5 174Z" fill="#559EE7" stroke="#559EE7" stroke-width="1"/>
	<path d="M425.5 178L441.5 178L446 181.5L447 183.5L447 199.5L441.5 204L425.5 204L421 200.5L420 198.5L420 183.5L423.5 179L425.5 178Z" fill="#559EE7" stroke="#559EE7" stroke-width="1"/>
	<path d="M84.5 181L86 184.5L85 184.5L84.5 181Z" fill="#559EE7" stroke="#559EE7" stroke-width="1"/>
	<path d="M202.5 182L205 189.5L204 189.5L202.5 182Z" fill="#559EE7" stroke="#559EE7" stroke-width="1"/>
	<path d="M86.5 186L90 193.5L89 193.5L86.5 186Z" fill="#559EE7" stroke="#559EE7" stroke-width="1"/>
	<path d="M196.5 187L197 189.5L196 189.5L196.5 187Z" fill="#559EE7" stroke="#559EE7" stroke-width="1"/>
	<path d="M205.5 191Q209.2 201.8 217.5 208Q225.9 211.1 231 217.5Q234.1 221.9 233 230.5L229.5 238Q227.7 222.8 218 215.5L226 222.5L227.5 225L232 222.5L224.5 213Q215.1 209.4 210 201.5L205 192.5L205.5 191Z" fill="#559EE7" stroke="#559EE7" stroke-width="1"/>
	<path d="M201.5 201L202.5 203L201.5 201Z" fill="#559EE7" stroke="#559EE7" stroke-width="1"/>
	<path d="M208.5 208L215 213.5L212.5 212L208.5 208Z" fill="#559EE7" stroke="#559EE7" stroke-width="1"/>
	<path d="M247.5 74Q258.9 88.1 266 106.5L272 131.5L273 150.5L272 151.5L271 167.5L269.5 170L266 169Q255.2 200 232.5 220L226.5 213Q216.8 209.2 211 201.5Q204.3 191.7 201 178.5L200 166Q195.5 164.3 197 169.5L192 180.5L185.5 206L138 176.5L139.5 176Q147.8 179.7 161.5 178L182.5 173L191.5 169L197 164.5L195.5 162Q163.1 158.9 148 138.5Q143.9 136.2 145 130Q148 131 147 128L145 128Q146.1 125.3 143.5 126L140 118L146.5 115L161.5 111L178.5 110L179.5 109L190.5 109L191.5 108L208.5 106L225.5 99L241 85.5L247.5 74Z" fill="#0090F8" stroke="#0090F8" stroke-width="1"/>
	<path d="M175 46Q194 46.4 205 55L206 60.5Q198.4 67.4 181.5 65Q180.3 62.8 175.5 64L172 62L175 46Z" fill="#F3F3F3" stroke="#F3F3F3" stroke-width="1"/>
	<path d="M243.5 70L247 74.5Q242.5 86 233.5 93L218.5 102L201.5 107L188.5 108L187.5 109L157.5 110L156.5 111Q151.8 107.8 153 100L163.5 92L166 92L164 88.5L172.5 88L187.5 91L203.5 91L204.5 90L216.5 89L227.5 85L240 75.5L243.5 70Z" fill="#F3F3F3" stroke="#F3F3F3" stroke-width="1"/>
	<path d="M324.5 100L401 100L401 177.5Q398.5 189.5 390.5 196L373.5 204L296 204L296 128.5Q298.5 114 308.5 107L324.5 100ZM338 121L332 123L325 130L323 138L323 183L361 183L368 180L371 177L374 168L374 121L338 121Z" fill="#F3F3F3" stroke="#F3F3F3" stroke-width="1"/>
	<path d="M490.5 133L493 133.5L493 204.5L476.5 221L466 221L466 154.5Q467.6 145 473.5 140Q480.1 134.6 490.5 133Z" fill="#F3F3F3" stroke="#F3F3F3" stroke-width="1"/>
	<path d="M86.5 135L92 138.5Q96.5 148 104 154.5L104 157Q97.2 157.5 93 161.5Q99.5 180.5 114.5 191L117 192.5L120 200.5L117 202Q118.3 205.3 113.5 204L111.5 206L100.5 209L91 196.5L84 180.5L79 160.5L79 147.5L81 140.5L84.5 136L86.5 135Z" fill="#F3F3F3" stroke="#F3F3F3" stroke-width="1"/>
	<path d="M879.5 162L935.5 162L936 163.5L958 203.5L923.5 204L913 184L868.5 184L868 181.5L879.5 162Z" fill="#F3F3F3" stroke="#F3F3F3" stroke-width="1"/>
	<path d="M198.5 168L205 192.5Q209.5 203.5 218.5 210Q225.9 212.6 230 218.5L232 222.5L227.5 225L218.5 215L203 203.5Q195.3 195.2 196 178.5L198.5 168Z" fill="#F3F3F3" stroke="#F3F3F3" stroke-width="1"/>
	<path d="M770.5 177L786.5 178L791 182.5L792 197.5L786.5 204L765.5 204L762 200.5L761 198.5L761 183.5L765.5 178L770.5 177Z" fill="#F3F3F3" stroke="#F3F3F3" stroke-width="1"/>
	<path d="M595.5 178L611.5 178L616 181.5L617 183.5L617 199.5L611.5 204L595.5 204L591 200.5L590 198.5L590 183.5L593.5 179L595.5 178Z" fill="#F3F3F3" stroke="#F3F3F3" stroke-width="1"/>
	<path d="M140.5 120L143.5 126Q146.1 125.3 145 128L147 128L147 130Q144 128.8 145 132.5L144 132.5L140 123.5L140.5 120Z" fill="#0423F1" stroke="#0423F1" stroke-width="1"/>
	<path d="M109.5 158L115.5 164L132.5 173L143.5 176L162 177.5L146.5 178Q145.2 175.8 140.5 177L141.5 179L185.5 206L193.5 178L194 180.5L192 185.5L191 206.5L192 207.5L192 215.5L194 224.5L201 243L195.5 244L185.5 244Q150.9 235.6 131 212.5Q121.1 201.4 115 186.5Q109.6 173.9 109.5 158Z" fill="#0423F1" stroke="#0423F1" stroke-width="1"/>
	<path d="M266 169L270 170.5Q261.8 207.3 238.5 229L231.5 235L232 233.5L233 222.5L232 220.5Q255 200.3 266 169Z" fill="#0423F1" stroke="#0423F1" stroke-width="1"/>
	<path d="M165.5 176L169 176.5L165.5 177L165.5 176Z" fill="#0423F1" stroke="#0423F1" stroke-width="1"/>
</svg>
