<?xml version="1.0" encoding="UTF-8"?>
<svg xmlns="http://www.w3.org/2000/svg" xmlns:xlink="http://www.w3.org/1999/xlink" width="40px" height="40px" viewBox="0 0 40 40" version="1.1">
<defs>
<linearGradient id="linear0" gradientUnits="userSpaceOnUse" x1="-1.84" y1="30.47" x2="32.16" y2="-3.03" gradientTransform="matrix(1.385521,0,0,1.385521,0,0)">
<stop offset="0" style="stop-color:rgb(99.607843%,83.529412%,46.27451%);stop-opacity:1;"/>
<stop offset="0.26" style="stop-color:rgb(95.686275%,44.313725%,20%);stop-opacity:1;"/>
<stop offset="0.61" style="stop-color:rgb(73.72549%,18.823529%,50.588235%);stop-opacity:1;"/>
<stop offset="1" style="stop-color:rgb(29.803922%,38.823529%,82.352941%);stop-opacity:1;"/>
</linearGradient>
</defs>
<g id="surface1">
<path style=" stroke:none;fill-rule:nonzero;fill:url(#linear0);" d="M 8.976562 0 L 31.023438 0 C 35.980469 0 40 4.019531 40 8.976562 L 40 31.023438 C 40 35.980469 35.980469 40 31.023438 40 L 8.976562 40 C 4.019531 40 0 35.980469 0 31.023438 L 0 8.976562 C 0 4.019531 4.019531 0 8.976562 0 Z M 8.976562 0 "/>
<path style=" stroke:none;fill-rule:nonzero;fill:rgb(100%,100%,100%);fill-opacity:1;" d="M 13.855469 6.925781 L 26.324219 6.925781 C 26.601562 7.066406 27.019531 7.066406 27.292969 7.203125 C 29.773438 7.605469 31.8125 9.378906 32.558594 11.777344 C 32.765625 12.453125 32.902344 13.152344 32.976562 13.855469 L 32.976562 26.046875 C 32.777344 27.59375 32.207031 29.066406 31.3125 30.34375 C 29.757812 32.144531 27.453125 33.117188 25.078125 32.976562 L 14.6875 32.976562 C 12.832031 33.066406 11.007812 32.472656 9.558594 31.3125 C 7.773438 29.769531 6.804688 27.488281 6.925781 25.132812 L 6.925781 15.433594 C 6.90625 14.738281 6.949219 14.042969 7.066406 13.355469 C 7.351562 10.441406 9.476562 8.042969 12.332031 7.398438 Z M 9.558594 20.089844 L 9.558594 25.492188 C 9.441406 26.886719 9.941406 28.261719 10.929688 29.25 C 11.917969 30.238281 13.292969 30.738281 14.6875 30.621094 C 18.289062 30.757812 21.890625 30.757812 25.492188 30.621094 C 28.679688 30.621094 30.480469 28.679688 30.621094 25.492188 C 30.757812 21.890625 30.757812 18.289062 30.621094 14.6875 C 30.691406 13.304688 30.175781 11.960938 29.199219 10.980469 C 28.222656 10.003906 26.875 9.488281 25.492188 9.558594 C 21.890625 9.421875 18.289062 9.421875 14.6875 9.558594 C 13.292969 9.441406 11.917969 9.941406 10.929688 10.929688 C 9.941406 11.917969 9.441406 13.292969 9.558594 14.6875 Z M 9.558594 20.089844 "/>
<path style=" stroke:none;fill-rule:nonzero;fill:rgb(100%,100%,100%);fill-opacity:1;" d="M 13.355469 20.144531 C 13.363281 16.398438 16.398438 13.363281 20.144531 13.355469 C 23.863281 13.429688 26.859375 16.425781 26.933594 20.144531 C 26.925781 23.890625 23.890625 26.925781 20.144531 26.933594 C 16.425781 26.859375 13.429688 23.863281 13.355469 20.144531 Z M 20.144531 15.851562 C 18.425781 15.824219 16.859375 16.839844 16.1875 18.425781 C 15.515625 20.011719 15.871094 21.847656 17.089844 23.0625 C 18.304688 24.28125 20.140625 24.636719 21.726562 23.964844 C 23.3125 23.292969 24.328125 21.726562 24.300781 20.007812 C 24.300781 17.710938 22.441406 15.851562 20.144531 15.851562 Z M 20.144531 15.851562 "/>
<path style=" stroke:none;fill-rule:nonzero;fill:rgb(100%,100%,100%);fill-opacity:1;" d="M 25.410156 13.078125 C 25.394531 12.632812 25.566406 12.203125 25.878906 11.886719 C 26.195312 11.570312 26.628906 11.402344 27.074219 11.417969 C 27.964844 11.476562 28.675781 12.1875 28.734375 13.078125 C 28.734375 13.996094 27.992188 14.742188 27.074219 14.742188 C 26.15625 14.742188 25.410156 13.996094 25.410156 13.078125 Z M 25.410156 13.078125 "/>
</g>
</svg>
